<svg xmlns="http://www.w3.org/2000/svg" viewBox="0 0 32 32" role="img" aria-label="Sugar Down">
  <defs>
    <linearGradient id="sd-bg" x1="0%" y1="0%" x2="100%" y2="100%">
      <stop offset="0%" stop-color="#1b4d2e"/>
      <stop offset="100%" stop-color="#0f2418"/>
    </linearGradient>
    <linearGradient id="sd-gold" x1="0%" y1="0%" x2="100%" y2="100%">
      <stop offset="0%" stop-color="#f0d78c"/>
      <stop offset="50%" stop-color="#e0b347"/>
      <stop offset="100%" stop-color="#c8972a"/>
    </linearGradient>
    <filter id="sd-soft" x="-20%" y="-20%" width="140%" height="140%">
      <feDropShadow dx="0" dy="1" stdDeviation="0.8" flood-color="#000" flood-opacity="0.35"/>
    </filter>
  </defs>
  <rect width="32" height="32" rx="9" fill="url(#sd-bg)"/>
  <rect x="2.5" y="2.5" width="27" height="27" rx="7" fill="none" stroke="url(#sd-gold)" stroke-width="1.15" opacity="0.9"/>
  <g filter="url(#sd-soft)">
    <path
      fill="url(#sd-gold)"
      d="M16 7.2c-3.9 0-6.8 2.5-7.6 5.9-.35 1.5-.2 3.1.4 4.5.75 1.7 2.2 3 4 3.7.45.18.92.3 1.4.35-.15-1.85.35-3.7 1.35-5.2 1.15-1.75 2.95-2.95 5-3.35.35-.07.7-.1 1.05-.1.5 0 1 .06 1.48.18 1.05-1.1 1.65-2.55 1.65-4.05 0-.25-.02-.5-.06-.74C23.4 9.2 20 7.2 16 7.2Z"
    />
    <path
      fill="url(#sd-gold)"
      d="M22.5 12.4c-.55-.12-1.12-.18-1.7-.18-3.35 0-6.1 2.45-6.55 5.65-.22 1.55.15 3.05 1 4.3 1.35 2 3.85 3.15 6.55 2.65 2.35-.45 4.2-2.25 4.75-4.55.4-1.75 0-3.55-1.1-4.95-.95-1.2-2.4-1.95-2.95-2.92Z"
      opacity="0.92"
    />
  </g>
  <circle cx="16" cy="11.5" r="1.35" fill="#0f2418" opacity="0.2"/>
</svg>
